<?xml version="1.0" encoding="utf-8"?>
<!-- Generator: Adobe Illustrator 21.0.2, SVG Export Plug-In . SVG Version: 6.00 Build 0)  -->
<svg id="Layer_1" style="enable-background:new 0 0 800 620.8;" version="1.1" viewBox="0 0 800 620.8" x="0px"
     xml:space="preserve" xmlns="http://www.w3.org/2000/svg" y="0px">
<style type="text/css">
	.st0 {
    fill: #404040;
  }
</style>
  <path class="st0" color-rendering="auto" d="M0,0v620.8h800V0C800,0,0,0,0,0z
	 M79.9,82.1h640.2v456.5H79.9C79.9,538.7,79.9,82.1,79.9,82.1z M236.8,139.2c-33.6,0-60.8,27.2-60.8,60.8c0,0,0,0,0,0
	c0,33.6,27.2,60.8,60.8,60.8c0,0,0,0,0,0c33.6,0,60.8-27.2,60.8-60.8l0,0C297.6,166.4,270.4,139.2,236.8,139.2
	C236.8,139.2,236.8,139.2,236.8,139.2z M479.5,206.9l-97.1,137.6l-52.3-50.7l-152,158.9h467.2L479.5,206.9L479.5,206.9z"
        image-rendering="auto" shape-rendering="auto"/>
</svg>
